<svg width="800" height="800" viewBox="0 0 800 800" fill="none" xmlns="http://www.w3.org/2000/svg">
<path d="M464 549.333V576H352V549.333H464Z" fill="white"/>
<path fill-rule="evenodd" clip-rule="evenodd" d="M335.042 218.094C355.458 218.094 371.318 220.22 382.62 224.474C394.043 228.606 403.219 236.262 410.146 247.443C417.194 258.623 420.719 272.174 420.719 288.094C420.719 310.819 413.913 329.595 400.302 344.422C386.691 359.127 366.092 368.241 338.505 371.766C345.554 378.085 352.177 386.41 358.375 396.74C370.247 416.957 383.42 445.248 397.906 481.609L546.927 218.094H607.995L651.38 485.333H599.245L590.313 426.271H484.401L452.318 485.333H340.328C335.589 470.264 326.292 446.748 312.438 414.786C304.903 397.53 296.882 385.924 288.375 379.969C283.149 376.444 274.035 374.682 261.031 374.682H238.609L215.458 485.333H160.406L216.37 218.094H335.042ZM503.542 381.792H583.568L568.073 274.24L503.542 381.792ZM246.995 334.578H276.161C305.693 334.578 325.259 332.816 334.859 329.292C344.582 325.767 352.177 320.238 357.646 312.703C363.115 305.168 365.849 297.269 365.849 289.005C365.849 279.283 361.899 271.991 354 267.13C349.139 264.214 338.627 262.755 322.464 262.755H261.943L246.995 334.578Z" fill="white"/>
<path fill-rule="evenodd" clip-rule="evenodd" d="M400 0C620.914 0 800 179.086 800 400C800 620.914 620.914 800 400 800C179.086 800 0 620.914 0 400C0 179.086 179.086 0 400 0ZM400 53.3333C208.541 53.3333 53.3333 208.541 53.3333 400C53.3333 591.459 208.541 746.667 400 746.667C591.459 746.667 746.667 591.459 746.667 400C746.667 208.541 591.459 53.3333 400 53.3333Z" fill="white"/>
</svg>
