<svg width="1024" height="1024" viewBox="0 0 1024 1024" fill="none" xmlns="http://www.w3.org/2000/svg">
<rect width="1024" height="1024" fill="#111827"/>
<path d="M563.2 631.467V652.8H473.6V631.467H563.2Z" fill="#BE185D"/>
<path fill-rule="evenodd" clip-rule="evenodd" d="M460.033 366.475C476.367 366.475 489.054 368.176 498.096 371.579C507.235 374.885 514.575 381.01 520.117 389.954C525.756 398.899 528.575 409.739 528.575 422.475C528.575 440.656 523.131 455.676 512.242 467.538C501.353 479.301 484.874 486.593 462.804 489.413C468.443 494.468 473.742 501.128 478.7 509.392C488.197 525.566 498.736 548.199 510.325 577.288L629.542 366.475H678.396L713.104 580.267H671.396L664.25 533.017H579.521L553.854 580.267H464.263C460.471 568.211 453.033 549.399 441.95 523.829C435.922 510.024 429.506 500.739 422.7 495.975C418.519 493.156 411.228 491.746 400.825 491.746H382.888L364.367 580.267H320.325L365.096 366.475H460.033ZM594.833 497.433H658.854L646.458 411.392L594.833 497.433ZM389.596 459.663H412.929C436.554 459.663 452.207 458.253 459.888 455.433C467.665 452.614 473.742 448.19 478.117 442.163C482.492 436.135 484.679 429.815 484.679 423.204C484.679 415.426 481.519 409.593 475.2 405.704C471.311 403.371 462.901 402.204 449.971 402.204H401.554L389.596 459.663Z" fill="#BE185D"/>
<path fill-rule="evenodd" clip-rule="evenodd" d="M512 192C688.731 192 832 335.269 832 512C832 688.731 688.731 832 512 832C335.269 832 192 688.731 192 512C192 335.269 335.269 192 512 192ZM512 234.667C358.833 234.667 234.667 358.833 234.667 512C234.667 665.167 358.833 789.333 512 789.333C665.167 789.333 789.333 665.167 789.333 512C789.333 358.833 665.167 234.667 512 234.667Z" fill="#BE185D"/>
</svg>
